<?xml version="1.0" encoding="UTF-8"?>
<svg width="78px" height="88px" viewBox="0 0 78 88" version="1.1" xmlns="http://www.w3.org/2000/svg" xmlns:xlink="http://www.w3.org/1999/xlink">
    <!-- Generator: Sketch 48.2 (47327) - http://www.bohemiancoding.com/sketch -->
    <title>Artist - 3</title>
    <desc>Created with Sketch.</desc>
    <defs></defs>
    <g id="Artist-–-Joinr-our-team-–-Desktop" stroke="none" stroke-width="1" fill="none" fill-rule="evenodd" transform="translate(-776.000000, -1349.000000)">
        <g id="Find-Firms-Copy-3" transform="translate(0.000000, 906.000000)" fill="#00EFAE" fill-rule="nonzero">
            <g id="#3" transform="translate(735.000000, 377.000000)">
                <g id="Icons-/-Sections-/-Hire-Copy-3" transform="translate(20.000000, 50.000000)">
                    <path d="M41.484375,16.5 C39.4804695,16.5 37.59375,17.2792965 36.181641,18.697266 L23.197266,31.681641 C21.7792965,33.099609 21,34.9804695 21,36.984375 L21,90 C21,92.478516 23.021484,94.5 25.5,94.5 L33,94.5 L33,99 C33,101.478516 35.021484,103.5 37.5,103.5 L94.5,103.5 C96.978516,103.5 99,101.478516 99,99 L99,30 C99,27.521484 96.978516,25.5 94.5,25.5 L87,25.5 L87,21 C87,18.521484 84.978516,16.5 82.5,16.5 L41.484375,16.5 Z M42,19.5 L82.5,19.5 C83.3261715,19.5 84,20.1738285 84,21 L84,79.5 C83.1679695,79.5 82.5,80.1679695 82.5,81 L82.5,84 C82.5,84.832032 83.1679695,85.5 84,85.5 L84,90 C84,90.8261715 83.3261715,91.5 82.5,91.5 L25.5,91.5 C24.6738285,91.5 24,90.8261715 24,90 L24,85.5 C24.832032,85.5 25.5,84.832032 25.5,84 L25.5,81 C25.5,80.1679695 24.832032,79.5 24,79.5 L24,37.5 L37.5,37.5 C39.978516,37.5 42,35.478516 42,33 L42,19.5 Z M39,20.25 L39,33 C39,33.8261715 38.3261715,34.5 37.5,34.5 L24.75,34.5 C24.9199215,34.2480465 25.1074215,34.0136715 25.318359,33.802734 L38.302734,20.818359 C38.519532,20.6015625 38.753907,20.4140625 39,20.25 Z M87,28.5 L94.5,28.5 C95.3261715,28.5 96,29.1738285 96,30 L96,99 C96,99.8261715 95.3261715,100.5 94.5,100.5 L37.5,100.5 C36.6738285,100.5 36,99.8261715 36,99 L36,94.5 L82.5,94.5 C84.978516,94.5 87,92.478516 87,90 L87,28.5 Z M37.5,43.5 C36.6679695,43.5 36,44.1679695 36,45 C36,45.832032 36.6679695,46.5 37.5,46.5 L58.5,46.5 C59.332032,46.5 60,45.832032 60,45 C60,44.1679695 59.332032,43.5 58.5,43.5 L37.5,43.5 Z M64.5,43.5 C63.6679695,43.5 63,44.1679695 63,45 C63,45.832032 63.6679695,46.5 64.5,46.5 L70.5,46.5 C71.332032,46.5 72,45.832032 72,45 C72,44.1679695 71.332032,43.5 70.5,43.5 L64.5,43.5 Z M37.5,49.5 C36.6679695,49.5 36,50.1679695 36,51 C36,51.832032 36.6679695,52.5 37.5,52.5 L64.5,52.5 C65.332032,52.5 66,51.832032 66,51 C66,50.1679695 65.332032,49.5 64.5,49.5 L37.5,49.5 Z M37.5,58.5 C36.6679695,58.5 36,59.1679695 36,60 C36,60.832032 36.6679695,61.5 37.5,61.5 L67.5,61.5 C68.332032,61.5 69,60.832032 69,60 C69,59.1679695 68.332032,58.5 67.5,58.5 L37.5,58.5 Z M37.5,64.5 C36.6679695,64.5 36,65.1679695 36,66 C36,66.832032 36.6679695,67.5 37.5,67.5 L52.5,67.5 C53.332032,67.5 54,66.832032 54,66 C54,65.1679695 53.332032,64.5 52.5,64.5 L37.5,64.5 Z M31.5,79.5 C30.6679695,79.5 30,80.1679695 30,81 L30,84 C30,84.832032 30.6679695,85.5 31.5,85.5 C32.332032,85.5 33,84.832032 33,84 L33,81 C33,80.1679695 32.332032,79.5 31.5,79.5 Z M39,79.5 C38.1679695,79.5 37.5,80.1679695 37.5,81 L37.5,84 C37.5,84.832032 38.1679695,85.5 39,85.5 C39.832032,85.5 40.5,84.832032 40.5,84 L40.5,81 C40.5,80.1679695 39.832032,79.5 39,79.5 Z M46.5,79.5 C45.6679695,79.5 45,80.1679695 45,81 L45,84 C45,84.832032 45.6679695,85.5 46.5,85.5 C47.332032,85.5 48,84.832032 48,84 L48,81 C48,80.1679695 47.332032,79.5 46.5,79.5 Z M54,79.5 C53.1679695,79.5 52.5,80.1679695 52.5,81 L52.5,84 C52.5,84.832032 53.1679695,85.5 54,85.5 C54.832032,85.5 55.5,84.832032 55.5,84 L55.5,81 C55.5,80.1679695 54.832032,79.5 54,79.5 Z M61.5,79.5 C60.6679695,79.5 60,80.1679695 60,81 L60,84 C60,84.832032 60.6679695,85.5 61.5,85.5 C62.332032,85.5 63,84.832032 63,84 L63,81 C63,80.1679695 62.332032,79.5 61.5,79.5 Z M69,79.5 C68.1679695,79.5 67.5,80.1679695 67.5,81 L67.5,84 C67.5,84.832032 68.1679695,85.5 69,85.5 C69.832032,85.5 70.5,84.832032 70.5,84 L70.5,81 C70.5,80.1679695 69.832032,79.5 69,79.5 Z M76.5,79.5 C75.6679695,79.5 75,80.1679695 75,81 L75,84 C75,84.832032 75.6679695,85.5 76.5,85.5 C77.332032,85.5 78,84.832032 78,84 L78,81 C78,80.1679695 77.332032,79.5 76.5,79.5 Z" id="Shape"></path>
                </g>
            </g>
        </g>
    </g>
</svg>