<?xml version="1.0" encoding="UTF-8"?>
<svg width="96px" height="93px" viewBox="0 0 96 93" version="1.1" xmlns="http://www.w3.org/2000/svg" xmlns:xlink="http://www.w3.org/1999/xlink">
    <!-- Generator: Sketch 48.2 (47327) - http://www.bohemiancoding.com/sketch -->
    <title>Artist - 1</title>
    <desc>Created with Sketch.</desc>
    <defs></defs>
    <g id="Artist-–-Joinr-our-team-–-Desktop" stroke="none" stroke-width="1" fill="none" fill-rule="evenodd" transform="translate(-181.000000, -1346.000000)">
        <g id="Find-Firms-Copy-3" transform="translate(0.000000, 906.000000)" fill="#00EFAE">
            <g id="#1" transform="translate(149.000000, 377.000000)">
                <g id="Icons-/-Sections-/-Create-profile" transform="translate(20.000000, 50.000000)">
                    <g id="Group" transform="translate(9.000000, 9.000000)">
                        <path d="M42,4.5 C38.6953125,4.5 33.978516,5.53125 31.037109,7.5117195 C25.453125,7.7109375 21.6269535,11.6367195 21.005859,17.853516 C20.619141,21.691407 20.9765625,24.4394535 21.2050785,26.255859 C21.287109,26.8886715 21.375,27.603516 21.3457035,27.8144535 C21.2929695,28.0957035 21.2519535,28.3769535 21.2109375,28.6582035 C20.9648445,28.6699215 20.7421875,28.7050785 20.5546875,28.7578125 C19.207032,29.1210945 18.2578125,30.322266 17.8828125,32.150391 C17.583984,33.615234 17.677734,35.396484 18.1523445,37.166016 C18.9550785,40.160157 20.6367195,42.410157 22.4765625,43.1015625 C23.425782,46.0078125 24.8203125,48.896484 26.5546875,51.4980465 L12.7265625,59.5078125 C6.7265625,62.9765625 3,69.4453125 3,76.3769535 L3,87 C3,89.478516 5.021484,91.5 7.5,91.5 L46.1484375,91.5 L45.615234,95.1855465 C45.550782,95.6542965 45.708984,96.1230465 46.0429695,96.462891 C46.3242195,96.744141 46.7050785,96.896484 47.103516,96.896484 C47.1738285,96.896484 47.244141,96.896484 47.3203125,96.884766 L54.697266,95.8300785 L64.2773445,94.8105465 C64.6230465,94.775391 64.9335945,94.6230465 65.1796875,94.3828125 L91.9453125,67.5292965 L96.181641,63.287109 C97.599609,61.875 98.384766,59.988282 98.384766,57.984375 C98.378907,55.9804695 97.599609,54.099609 96.181641,52.681641 L89.818359,46.318359 C86.894532,43.394532 82.1367195,43.394532 79.212891,46.318359 L76.1015625,49.4238285 L76.1015625,49.4296875 L75.8671875,49.6582035 L74.9707035,50.5605465 C74.9648445,50.566407 74.9707035,50.566407 74.9648445,50.572266 L70.412109,55.130859 C70.400391,55.1484375 70.3769535,55.1542965 70.359375,55.171875 C70.347657,55.1835945 70.347657,55.207032 70.3300785,55.21875 L67.96875,57.5917965 L57.4453125,51.4980465 C59.1796875,48.896484 60.5742195,46.0078125 61.5234375,43.1015625 C63.363282,42.410157 65.0449215,40.160157 65.847657,37.166016 C66.9550785,33.035157 65.9179695,29.4199215 63.4453125,28.7578125 C63.2578125,28.7109375 63.035157,28.6699215 62.7890625,28.6640625 C62.578125,27.0585945 62.1738285,25.5585945 61.412109,23.5078125 C61.394532,23.443359 61.3769535,23.390625 61.359375,23.34375 C61.8867195,23.384766 62.7363285,23.6015625 63.427734,23.8886715 C63.9492195,24.1054695 64.541016,24.0117195 64.96875,23.6484375 C65.390625,23.291016 65.5898445,22.722657 65.4667965,22.177734 C63.052734,11.109375 54.837891,4.5 43.5,4.5 L42,4.5 Z M42,7.5 L43.5,7.5 C52.6054695,7.5 59.1796875,12.1523445 61.875,20.3730465 C60.84375,20.255859 59.771484,20.378907 59.0332035,21.09375 C58.458984,21.6386715 57.9199215,22.6875 58.599609,24.5390625 C59.525391,27.0585945 59.859375,28.541016 59.953125,30.650391 C59.9824215,31.1894535 60.2929695,31.6699215 60.7675785,31.916016 C61.2480465,32.15625 61.822266,32.1269535 62.2734375,31.833984 C62.5136715,31.675782 62.6484375,31.6582035 62.671875,31.6582035 C63.035157,31.78125 63.691407,33.609375 62.953125,36.3867195 C62.208984,39.1523445 60.796875,40.318359 60.3515625,40.318359 C59.6894535,40.318359 59.103516,40.7578125 58.916016,41.390625 C56.384766,49.8925785 49.7636715,58.5 42,58.5 C34.2304695,58.5 27.615234,49.8925785 25.0898445,41.390625 C24.9023445,40.7578125 24.316407,40.318359 23.6484375,40.318359 C23.208984,40.318359 21.791016,39.1523445 21.052734,36.3867195 C20.7011715,35.0800785 20.619141,33.755859 20.8242195,32.7480465 C20.994141,31.910157 21.287109,31.6640625 21.322266,31.6582035 C21.328125,31.6582035 21.457032,31.6582035 21.7324215,31.833984 C22.1835945,32.1269535 22.7519535,32.15625 23.2324215,31.916016 C23.707032,31.6699215 24.0234375,31.1894535 24.046875,30.650391 C24.082032,29.8710945 24.1640625,29.0859375 24.2988285,28.3359375 C24.410157,27.691407 24.322266,26.9707035 24.181641,25.875 C23.9648445,24.193359 23.6425785,21.650391 23.994141,18.1523445 C24.474609,13.365234 27.28125,10.5 31.5234375,10.5 C31.8515625,10.5 32.1679695,10.394532 32.425782,10.2011715 C34.4765625,8.660157 38.5957035,7.5 42,7.5 Z M33.791016,16.6875 C32.71875,16.59375 31.640625,17.0859375 31.025391,18.0234375 L28.6171875,21.6738285 C28.160157,22.365234 28.353516,23.296875 29.0449215,23.753907 C29.296875,23.9238285 29.583984,24 29.865234,24 C30.3574215,24 30.832032,23.765625 31.125,23.3261715 L33.5332035,19.675782 L35.8769535,20.818359 C40.1484375,22.8984375 44.912109,24 49.6640625,24 L53.5019535,24 C54.328125,24 55.0019535,23.3261715 55.0019535,22.5 C55.0019535,21.6738285 54.328125,21 53.5019535,21 L49.6640625,21 C45.369141,21 41.050782,20.003907 37.1894535,18.1171875 L34.8457035,16.974609 C34.505859,16.8105465 34.1484375,16.7167965 33.791016,16.6875 Z M84.515625,47.1269535 C85.6640625,47.1210945 86.818359,47.5605465 87.697266,48.4394535 L94.0605465,54.802734 C94.910157,55.6523445 95.378907,56.7832035 95.378907,57.984375 C95.378907,59.1855465 94.910157,60.316407 94.0605465,61.166016 L90.878907,64.347657 L78.1523445,51.6210945 L81.333984,48.4394535 C82.212891,47.5605465 83.3613285,47.1269535 84.515625,47.1269535 Z M76.03125,53.7421875 L88.7578125,66.46875 L86.2792965,68.958984 L73.546875,56.2324215 L76.03125,53.7421875 Z M28.359375,53.912109 C32.009766,58.365234 36.755859,61.5 42,61.5 C47.244141,61.5 51.984375,58.365234 55.634766,53.912109 L65.771484,59.7890625 L48.2109375,77.4140625 C47.9707035,77.6484375 47.818359,77.958984 47.7832035,78.2988285 L46.681641,87.7617195 L46.5703125,88.5 L7.5,88.5 C6.6738285,88.5 6,87.8261715 6,87 L6,76.3769535 C6,70.5117195 9.1523445,65.0390625 14.2324215,62.097657 L28.359375,53.912109 Z M71.431641,58.359375 L84.1640625,71.0859375 L65.1796875,90.1230465 L64.505859,83.578125 C64.4238285,82.8105465 63.785157,82.2304695 63.0175785,82.2304695 L60.275391,82.2304695 L60.275391,80.109375 L68.3203125,72.0644535 C68.90625,71.472657 68.90625,70.5292965 68.3203125,69.9375 C67.728516,69.3515625 66.785157,69.3515625 66.193359,69.9375 L58.21875,77.9179695 L52.5292965,77.3203125 L71.431641,58.359375 Z M30.09375,61.5 C29.5136715,61.4648445 28.9335945,61.775391 28.6582035,62.3261715 C28.2890625,63.0703125 28.587891,63.972657 29.3261715,64.3417965 L41.3261715,70.3417965 C41.5429695,70.447266 41.771484,70.5 42,70.5 C42.228516,70.5 42.462891,70.447266 42.6738285,70.3417965 L54.6738285,64.3417965 C55.412109,63.972657 55.7109375,63.0703125 55.3417965,62.3261715 C54.972657,61.587891 54.0703125,61.2890625 53.3261715,61.6582035 L42,67.3242195 L30.6738285,61.6582035 C30.4863285,61.5644535 30.2929695,61.5175785 30.09375,61.5 Z M12,79.5 C11.1679695,79.5 10.5,80.1738285 10.5,81 L10.5,84 C10.5,84.8261715 11.1679695,85.5 12,85.5 C12.832032,85.5 13.5,84.8261715 13.5,84 L13.5,81 C13.5,80.1738285 12.832032,79.5 12,79.5 Z M19.5,79.5 C18.6679695,79.5 18,80.1738285 18,81 L18,84 C18,84.8261715 18.6679695,85.5 19.5,85.5 C20.332032,85.5 21,84.8261715 21,84 L21,81 C21,80.1738285 20.332032,79.5 19.5,79.5 Z M27,79.5 C26.1679695,79.5 25.5,80.1738285 25.5,81 L25.5,84 C25.5,84.8261715 26.1679695,85.5 27,85.5 C27.832032,85.5 28.5,84.8261715 28.5,84 L28.5,81 C28.5,80.1738285 27.832032,79.5 27,79.5 Z M34.5,79.5 C33.6679695,79.5 33,80.1738285 33,81 L33,84 C33,84.8261715 33.6679695,85.5 34.5,85.5 C35.332032,85.5 36,84.8261715 36,84 L36,81 C36,80.1738285 35.332032,79.5 34.5,79.5 Z M42,79.5 C41.1679695,79.5 40.5,80.1738285 40.5,81 L40.5,84 C40.5,84.8261715 41.1679695,85.5 42,85.5 C42.832032,85.5 43.5,84.8261715 43.5,84 L43.5,81 C43.5,80.1738285 42.832032,79.5 42,79.5 Z M50.583984,80.1328125 L57.275391,80.8359375 L57.275391,83.724609 C57.275391,84.556641 57.943359,85.224609 58.775391,85.224609 L61.6640625,85.224609 L62.3613285,91.9921875 L55.078125,92.765625 L49.734375,87.421875 L50.583984,80.1328125 Z" id="Shape" fill-rule="nonzero"></path>
                    </g>
                </g>
            </g>
        </g>
    </g>
</svg>