<?xml version="1.0" encoding="UTF-8"?>
<svg width="96px" height="95px" viewBox="0 0 96 95" version="1.1" xmlns="http://www.w3.org/2000/svg" xmlns:xlink="http://www.w3.org/1999/xlink">
    <!-- Generator: Sketch 48.2 (47327) - http://www.bohemiancoding.com/sketch -->
    <title>Artist - 2</title>
    <desc>Created with Sketch.</desc>
    <defs></defs>
    <g id="Artist-–-Joinr-our-team-–-Desktop" stroke="none" stroke-width="1" fill="none" fill-rule="evenodd" transform="translate(-474.000000, -1346.000000)">
        <g id="Find-Firms-Copy-3" transform="translate(0.000000, 906.000000)">
            <g id="#2" transform="translate(442.000000, 377.000000)">
                <g id="Icons-/-Sections-/-Hire-Copy-2" transform="translate(20.000000, 50.000000)">
                    <g id="icons8-handshake" transform="translate(15.000000, 19.500000)"></g>
                    <g id="icons8-find_matching_job" transform="translate(12.000000, 13.500000)" fill="#00EFAE">
                        <path d="M39.105468,0 C37.5979695,0 36.1983285,0.74840625 35.3613285,2.00390625 L30.697266,9 L4.5,9 C2.025,9 0,11.025 0,13.5 L0,28.2011715 C0,30.6461715 1.14,32.8361715 3,34.2011715 L3,73.5 C3,75.975 5.025,78 7.5,78 L53.129883,78 L46.6787115,84.433593 C44.4437115,86.683593 44.4437115,90.316407 46.6787115,92.566407 C47.8037115,93.676407 49.275117,94.245117 50.745117,94.245117 C52.215117,94.245117 53.683593,93.676407 54.808593,92.566407 L61.6787115,85.6787115 C61.7987115,85.5587115 61.905117,85.4562885 61.995117,85.3212885 C65.355117,87.3462885 69.3,88.5 73.5,88.5 C85.905,88.5 96,78.405 96,66 C96,61.92 94.905,58.0939455 93,54.7939455 L93,34.2011715 C94.86,32.8361715 96,30.6461715 96,28.2011715 L96,13.5 C96,11.025 93.975,9 91.5,9 L65.302734,9 L60.6386715,2.00390625 C59.8016715,0.74840625 58.402032,0 56.894532,0 L39.105468,0 Z M39.105468,3 L56.894532,3 C57.397032,3 57.8635785,3.24946875 58.1425785,3.66796875 L61.6962885,9 L34.3037115,9 L37.8574215,3.66796875 C38.1364215,3.24946875 38.602968,3 39.105468,3 Z M4.5,12 L28.6962885,12 L67.300782,12 L91.5,12 C92.325,12 93,12.675 93,13.5 L93,15 C92.172,15 91.5,15.6705 91.5,16.5 L91.5,19.5 C91.5,20.3295 92.172,21 93,21 L93,28.2011715 C93,30.1361715 91.8,31.8162885 90,32.4462885 C89.835,32.5062885 89.670234,32.5507035 89.490234,32.5957035 L54,40.605468 L54,37.5 C54,35.85 52.65,34.5 51,34.5 L45,34.5 C43.35,34.5 42,35.85 42,37.5 L42,40.605468 L6.5097657,32.5957035 C6.32976555,32.5507035 6.165,32.5062885 6,32.4462885 C4.2,31.8162885 3,30.1361715 3,28.2011715 L3,21 C3.828,21 4.5,20.3295 4.5,19.5 L4.5,16.5 C4.5,15.6705 3.828,15 3,15 L3,13.5 C3,12.675 3.675,12 4.5,12 Z M10.5,15 C9.672,15 9,15.6705 9,16.5 L9,19.5 C9,20.3295 9.672,21 10.5,21 C11.328,21 12,20.3295 12,19.5 L12,16.5 C12,15.6705 11.328,15 10.5,15 Z M18,15 C17.172,15 16.5,15.6705 16.5,16.5 L16.5,19.5 C16.5,20.3295 17.172,21 18,21 C18.828,21 19.5,20.3295 19.5,19.5 L19.5,16.5 C19.5,15.6705 18.828,15 18,15 Z M25.5,15 C24.672,15 24,15.6705 24,16.5 L24,19.5 C24,20.3295 24.672,21 25.5,21 C26.328,21 27,20.3295 27,19.5 L27,16.5 C27,15.6705 26.328,15 25.5,15 Z M33,15 C32.172,15 31.5,15.6705 31.5,16.5 L31.5,19.5 C31.5,20.3295 32.172,21 33,21 C33.828,21 34.5,20.3295 34.5,19.5 L34.5,16.5 C34.5,15.6705 33.828,15 33,15 Z M40.5,15 C39.672,15 39,15.6705 39,16.5 L39,19.5 C39,20.3295 39.672,21 40.5,21 C41.328,21 42,20.3295 42,19.5 L42,16.5 C42,15.6705 41.328,15 40.5,15 Z M48,15 C47.172,15 46.5,15.6705 46.5,16.5 L46.5,19.5 C46.5,20.3295 47.172,21 48,21 C48.828,21 49.5,20.3295 49.5,19.5 L49.5,16.5 C49.5,15.6705 48.828,15 48,15 Z M55.5,15 C54.672,15 54,15.6705 54,16.5 L54,19.5 C54,20.3295 54.672,21 55.5,21 C56.328,21 57,20.3295 57,19.5 L57,16.5 C57,15.6705 56.328,15 55.5,15 Z M63,15 C62.172,15 61.5,15.6705 61.5,16.5 L61.5,19.5 C61.5,20.3295 62.172,21 63,21 C63.828,21 64.5,20.3295 64.5,19.5 L64.5,16.5 C64.5,15.6705 63.828,15 63,15 Z M70.5,15 C69.672,15 69,15.6705 69,16.5 L69,19.5 C69,20.3295 69.672,21 70.5,21 C71.328,21 72,20.3295 72,19.5 L72,16.5 C72,15.6705 71.328,15 70.5,15 Z M78,15 C77.172,15 76.5,15.6705 76.5,16.5 L76.5,19.5 C76.5,20.3295 77.172,21 78,21 C78.828,21 79.5,20.3295 79.5,19.5 L79.5,16.5 C79.5,15.6705 78.828,15 78,15 Z M85.5,15 C84.672,15 84,15.6705 84,16.5 L84,19.5 C84,20.3295 84.672,21 85.5,21 C86.328,21 87,20.3295 87,19.5 L87,16.5 C87,15.6705 86.328,15 85.5,15 Z M6,35.5488285 L42,43.6962885 L42,46.5 C42,48.15 43.35,49.5 45,49.5 L51,49.5 C52.65,49.5 54,48.15 54,46.5 L54,43.6962885 L90,35.5488285 L90,50.730468 C85.89,46.290468 80.01,43.5 73.5,43.5 C61.095,43.5 51,53.595 51,66 L10.5,66 C9.675,66 9,66.675 9,67.5 C9,68.325 9.675,69 10.5,69 L51.2109375,69 C51.4809375,71.115 52.064649,73.125 52.889649,75 L7.5,75 C6.675,75 6,74.325 6,73.5 L6,35.5488285 Z M45,37.5 L51,37.5 L51,46.5 L45,46.5 L45,37.5 Z M73.5,46.5 C80.445,46.5 86.55,50.145117 90,55.620117 C91.905,58.635117 93,62.19 93,66 C93,70.5 91.455,74.6707035 88.875,77.9707035 C85.32,82.5457035 79.755,85.5 73.5,85.5 C69.63,85.5 66.03,84.3738285 63,82.4238285 C61.14,81.2238285 59.489649,79.74 58.139649,78 C57.704649,77.46 57.3160545,76.8890625 56.9560545,76.2890625 C56.6860545,75.8690625 56.4310545,75.435 56.2060545,75 C55.2460545,73.155 54.555234,71.13 54.240234,69 C54.075234,68.025 54,67.02 54,66 C54,55.245 62.745,46.5 73.5,46.5 Z M73.371093,49.5 C64.344093,49.5 57,56.844093 57,65.871093 C57,74.8980945 64.344093,82.2421875 73.371093,82.2421875 C82.3980945,82.2421875 89.7421875,74.898093 89.7421875,65.871093 C89.7421875,56.844093 82.398093,49.5 73.371093,49.5 Z M73.371093,52.5 C80.743593,52.5 86.7421875,58.498593 86.7421875,65.871093 C86.7421875,73.243593 80.743593,79.2421875 73.371093,79.2421875 C65.9985945,79.2421875 60,73.243593 60,65.871093 C60,58.4985945 65.998593,52.5 73.371093,52.5 Z M73.371093,55.239258 C72.5430945,55.239258 71.871093,55.909758 71.871093,56.739258 C71.871093,57.568758 72.5430945,58.239258 73.371093,58.239258 C76.4340945,58.239258 79.1905545,60.059883 80.3935545,62.879883 C80.6365545,63.449883 81.1914375,63.791016 81.7734375,63.791016 C81.9699375,63.791016 82.1703045,63.753399 82.3623045,63.670899 C83.1243045,63.345399 83.4788205,62.462649 83.1533205,61.702149 C81.4793205,57.776649 77.638593,55.239258 73.371093,55.239258 Z M55.6640625,79.6962885 C56.7890625,81.1512885 58.0795305,82.470351 59.519532,83.610351 L52.6787115,90.433593 C51.6137115,91.513593 49.8735945,91.513593 48.808593,90.433593 C47.7285945,89.368593 47.7285945,87.631407 48.808593,86.566407 L55.6640625,79.6962885 Z" id="Shape" fill-rule="nonzero"></path>
                    </g>
                </g>
            </g>
        </g>
    </g>
</svg>