<?xml version="1.0" encoding="UTF-8"?>
<svg width="260px" height="20px" viewBox="0 0 260 20" version="1.1" xmlns="http://www.w3.org/2000/svg" xmlns:xlink="http://www.w3.org/1999/xlink">
    <!-- Generator: Sketch 48.2 (47327) - http://www.bohemiancoding.com/sketch -->
    <title>Logo</title>
    <desc>Created with Sketch.</desc>
    <defs>
        <polygon id="path-1" points="0.0857795297 0.0550502477 10.3580231 0.0550502477 10.3580231 19.7777148 0.0857795297 19.7777148"></polygon>
    </defs>
    <g id="Header" stroke="none" stroke-width="1" fill="none" fill-rule="evenodd" transform="translate(-40.000000, -30.000000)">
        <g id="navigation">
            <g id="Logo-Copy" transform="translate(40.000000, 30.000000)">
                <g id="Page-1" transform="translate(62.309904, 0.000000)" fill="#FFFFFF">
                    <polygon id="Fill-1" points="0 0.952380952 0 5.2486841 0.331242996 5.58658124 5.37120371 5.58658124 5.37120371 19.6825397 10.3636206 19.6825397 10.3636206 5.58658124 15.4035813 5.58658124 15.7348243 5.2486841 15.7348243 0.952380952"></polygon>
                    <path d="M24.8607077,4.94247619 L21.9802907,4.94247619 L21.9802907,8.95295238 L24.8607077,8.95295238 C25.1464521,8.95295238 25.416147,8.90152381 25.670107,8.79803175 C25.9237524,8.69453968 26.1462428,8.55168254 26.3366342,8.36850794 C26.5270256,8.18533333 26.6777652,7.97453968 26.788853,7.73580952 C26.8996262,7.49707937 26.9556422,7.23453968 26.9556422,6.94787302 C26.9556422,6.66152381 26.8996262,6.39866667 26.788853,6.16025397 C26.6777652,5.92152381 26.5270256,5.71073016 26.3366342,5.52755556 C26.1462428,5.34438095 25.9237524,5.20152381 25.670107,5.09803175 C25.416147,4.99422222 25.1464521,4.94247619 24.8607077,4.94247619 Z M28.4554856,19.423746 L25.2414904,13.6599365 L22.1228482,13.6599365 L22.1467652,19.423746 L17.0524585,19.423746 L17.0524585,0.787873016 L26.3127173,0.787873016 C26.756754,0.787873016 27.2092875,0.872 27.6696885,1.04025397 C28.1297748,1.20819048 28.5744409,1.43263492 29.0030575,1.71263492 C29.4313594,1.99263492 29.827877,2.30914286 30.1932396,2.66088889 C30.5579728,3.01326984 30.8676342,3.3735873 31.1215942,3.74184127 C31.4388083,4.20628571 31.6811246,4.74660317 31.8479137,5.36279365 C32.0143882,5.97930159 32.0977827,6.56787302 32.0977827,7.12787302 C32.0977827,8.0567619 31.8834744,8.92120635 31.4548578,9.72152381 C31.0265559,10.5224762 30.4311502,11.1945397 29.6695847,11.7389841 L34.0020112,19.423746 L28.4554856,19.423746 Z" id="Fill-2"></path>
                    <path d="M44.1956283,7.58415873 L42.7197018,12.5073333 L45.6479526,12.5073333 L44.1956283,7.58415873 Z M47.9807976,19.4235238 L47.028526,16.854 L41.3388136,16.854 L40.386542,19.4235238 L35.17328,19.4235238 L42.0056554,0.787968254 L46.3619989,0.787968254 L53.1943743,19.4235238 L47.9807976,19.4235238 Z" id="Fill-4"></path>
                    <path d="M62.8618503,20 C61.496697,20 60.2231203,19.7396825 59.0408056,19.2196825 C57.8584909,18.6993651 56.8269158,17.9869841 55.9460804,17.0822222 C55.0652449,16.1777778 54.3710244,15.1292063 53.8631043,13.9361905 C53.3551842,12.7438095 53.1012241,11.4746032 53.1012241,10.1298413 C53.1012241,8.78507937 53.3551842,7.51619048 53.8631043,6.32349206 C54.3710244,5.13111111 55.0652449,4.08222222 55.9460804,3.17746032 C56.8269158,2.27301587 57.8584909,1.56063492 59.0408056,1.04 C60.2231203,0.52 61.496697,0.25968254 62.8618503,0.25968254 C64.0998663,0.25968254 65.2900484,0.487936508 66.4327113,0.944126984 C67.5753743,1.40031746 68.6308663,2.06063492 69.5988727,2.92539683 L65.7901011,6.28730159 C64.8692992,5.63111111 63.9009781,5.30285714 62.8857673,5.30285714 C62.2192401,5.30285714 61.6002321,5.43111111 61.0287433,5.68698413 C60.4572545,5.9431746 59.9653839,6.29555556 59.5528168,6.74380952 C59.139935,7.19206349 58.8148535,7.70857143 58.5766283,8.29269841 C58.3387177,8.87714286 58.2197625,9.48984127 58.2197625,10.1298413 C58.2197625,10.7866667 58.3387177,11.4066667 58.5766283,11.9907937 C58.8148535,12.5755556 59.139935,13.0879365 59.5528168,13.5279365 C59.9653839,13.968254 60.4534781,14.3203175 61.0167848,14.5844444 C61.5800915,14.8488889 62.1953232,14.9809524 62.8618503,14.9809524 C63.6234158,14.9809524 64.3336858,14.8047619 64.9926602,14.452381 C65.6506906,14.1006349 66.2262704,13.604127 66.7184558,12.9634921 L70.6464973,16.1815873 C69.6621267,17.3984127 68.4999526,18.3393651 67.1587161,19.0034921 C65.8174797,19.667619 64.385296,20 62.8618503,20" id="Fill-6"></path>
                    <polygon id="Fill-8" points="79.7806257 9.60146032 87.0891369 19.4236825 81.0900778 19.4236825 76.0193733 13.155746 76.0193733 19.4236825 70.9486688 19.4236825 70.9486688 0.787809524 76.0193733 0.787809524 76.0193733 7.05574603 81.0900778 0.787809524 87.3270474 0.787809524"></polygon>
                    <path d="M96.2066179,4.94247619 L93.326201,4.94247619 L93.326201,8.95295238 L96.2066179,8.95295238 C96.4923623,8.95295238 96.7620572,8.90152381 97.0160173,8.79803175 C97.2696626,8.69453968 97.492153,8.55168254 97.6825444,8.36850794 C97.8729358,8.18533333 98.0236754,7.97453968 98.1347633,7.73580952 C98.2455364,7.49707937 98.3015524,7.23453968 98.3015524,6.94787302 C98.3015524,6.66152381 98.2455364,6.39866667 98.1347633,6.16025397 C98.0236754,5.92152381 97.8729358,5.71073016 97.6825444,5.52755556 C97.492153,5.34438095 97.2696626,5.20152381 97.0160173,5.09803175 C96.7620572,4.99422222 96.4923623,4.94247619 96.2066179,4.94247619 Z M99.8013958,19.423746 L96.5874006,13.6599365 L93.4687585,13.6599365 L93.4926754,19.423746 L88.3983687,19.423746 L88.3983687,0.787873016 L97.6586275,0.787873016 C98.1026642,0.787873016 98.5551978,0.872 99.0155987,1.04025397 C99.475685,1.20819048 99.9203511,1.43263492 100.348968,1.71263492 C100.77727,1.99263492 101.173787,2.30914286 101.53915,2.66088889 C101.903883,3.01326984 102.213544,3.3735873 102.467504,3.74184127 C102.784719,4.20628571 103.027035,4.74660317 103.193824,5.36279365 C103.360298,5.97930159 103.443693,6.56787302 103.443693,7.12787302 C103.443693,8.0567619 103.229385,8.92120635 102.800768,9.72152381 C102.372466,10.5224762 101.77706,11.1945397 101.015495,11.7389841 L105.347921,19.423746 L99.8013958,19.423746 Z" id="Fill-10"></path>
                    <polygon id="Fill-12" points="106.583451 19.4236825 106.583451 0.787809524 121.319429 0.787809524 121.319429 5.23066667 111.392328 5.23066667 111.392328 7.89638095 120.74794 7.89638095 120.74794 12.3392381 111.392328 12.3392381 111.392328 15.0049524 121.319429 15.0049524 121.319429 19.4236825"></polygon>
                    <path d="M132.336638,20 C130.971485,20 129.697908,19.7396825 128.515593,19.2196825 C127.333279,18.6993651 126.301704,17.9869841 125.420868,17.0822222 C124.540033,16.1777778 123.845812,15.1292063 123.337892,13.9361905 C122.829972,12.7438095 122.576012,11.4746032 122.576012,10.1298413 C122.576012,8.78507937 122.829972,7.51619048 123.337892,6.32349206 C123.845812,5.13111111 124.540033,4.08222222 125.420868,3.17746032 C126.301704,2.27301587 127.333279,1.56063492 128.515593,1.04 C129.697908,0.52 130.971485,0.25968254 132.336638,0.25968254 C133.574654,0.25968254 134.764836,0.487936508 135.907499,0.944126984 C137.050162,1.40031746 138.105654,2.06063492 139.073661,2.92539683 L135.264889,6.28730159 C134.344087,5.63111111 133.375766,5.30285714 132.360555,5.30285714 C131.694028,5.30285714 131.07502,5.43111111 130.503531,5.68698413 C129.932042,5.9431746 129.440172,6.29555556 129.027605,6.74380952 C128.614723,7.19206349 128.289641,7.70857143 128.051416,8.29269841 C127.813506,8.87714286 127.69455,9.48984127 127.69455,10.1298413 C127.69455,10.7866667 127.813506,11.4066667 128.051416,11.9907937 C128.289641,12.5755556 128.614723,13.0879365 129.027605,13.5279365 C129.440172,13.968254 129.928266,14.3203175 130.491573,14.5844444 C131.054879,14.8488889 131.670111,14.9809524 132.336638,14.9809524 C133.098204,14.9809524 133.808474,14.8047619 134.467448,14.452381 C135.125478,14.1006349 135.701058,13.604127 136.193244,12.9634921 L140.121285,16.1815873 C139.136915,17.3984127 137.97474,18.3393651 136.633504,19.0034921 C135.292268,19.667619 133.860084,20 132.336638,20" id="Fill-14"></path>
                    <path d="M149.426892,5.03860317 C148.728265,5.03860317 148.081879,5.17892063 147.486473,5.45892063 C146.891382,5.7392381 146.379686,6.11130159 145.951384,6.57542857 C145.522767,7.04019048 145.185098,7.58050794 144.93932,8.19669841 C144.693227,8.81320635 144.570496,9.4655873 144.570496,10.1538413 C144.570496,10.8262222 144.693227,11.4744762 144.93932,12.0989206 C145.185098,12.7236825 145.522767,13.2678095 145.951384,13.7319365 C146.379686,14.1966984 146.891382,14.5690794 147.486473,14.8487619 C148.081879,15.1290794 148.728265,15.2690794 149.426892,15.2690794 C150.125203,15.2690794 150.771904,15.1290794 151.366996,14.8487619 C151.962401,14.5690794 152.474098,14.1966984 152.9024,13.7319365 C153.331016,13.2678095 153.668056,12.7236825 153.914464,12.0989206 C154.160242,11.4744762 154.283288,10.8262222 154.283288,10.1538413 C154.283288,9.4655873 154.160242,8.81320635 153.914464,8.19669841 C153.668056,7.58050794 153.331016,7.04019048 152.9024,6.57542857 C152.474098,6.11130159 151.962401,5.7392381 151.366996,5.45892063 C150.771904,5.17892063 150.125203,5.03860317 149.426892,5.03860317 M149.426892,19.999873 C148.061738,19.999873 146.784385,19.7436825 145.594203,19.231619 C144.403706,18.7192381 143.363949,18.0189206 142.475561,17.1303492 C141.586543,16.2417778 140.884141,15.1970159 140.368668,13.996381 C139.852881,12.7954286 139.594829,11.5147937 139.594829,10.1538413 C139.594829,8.79320635 139.852881,7.51225397 140.368668,6.31130159 C140.884141,5.11066667 141.586543,4.06622222 142.475561,3.17733333 C143.363949,2.2887619 144.403706,1.58463492 145.594203,1.064 C146.784385,0.544 148.061738,0.28368254 149.426892,0.28368254 C150.775681,0.28368254 152.049258,0.544 153.247936,1.064 C154.445986,1.58463492 155.489205,2.2887619 156.378222,3.17733333 C157.266925,4.06622222 157.969328,5.11066667 158.485115,6.31130159 C159.000588,7.51225397 159.258639,8.79320635 159.258639,10.1538413 C159.258639,11.5147937 159.000588,12.7954286 158.485115,13.996381 C157.969328,15.1970159 157.266925,16.2417778 156.378222,17.1303492 C155.489205,18.0189206 154.445986,18.7192381 153.247936,19.231619 C152.049258,19.7436825 150.775681,19.999873 149.426892,19.999873" id="Fill-16"></path>
                    <path d="M169.019045,4.94247619 L166.138628,4.94247619 L166.138628,8.95295238 L169.019045,8.95295238 C169.30479,8.95295238 169.574485,8.90152381 169.828445,8.79803175 C170.08209,8.69453968 170.30458,8.55168254 170.494972,8.36850794 C170.685363,8.18533333 170.836103,7.97453968 170.947191,7.73580952 C171.057964,7.49707937 171.11398,7.23453968 171.11398,6.94787302 C171.11398,6.66152381 171.057964,6.39866667 170.947191,6.16025397 C170.836103,5.92152381 170.685363,5.71073016 170.494972,5.52755556 C170.30458,5.34438095 170.08209,5.20152381 169.828445,5.09803175 C169.574485,4.99422222 169.30479,4.94247619 169.019045,4.94247619 Z M172.613823,19.423746 L169.399828,13.6599365 L166.281186,13.6599365 L166.305103,19.423746 L161.210796,19.423746 L161.210796,0.787873016 L170.471055,0.787873016 C170.915092,0.787873016 171.367625,0.872 171.828026,1.04025397 C172.288112,1.20819048 172.732778,1.43263492 173.161395,1.71263492 C173.589697,1.99263492 173.986215,2.30914286 174.351577,2.66088889 C174.71631,3.01326984 175.025972,3.3735873 175.279932,3.74184127 C175.597146,4.20628571 175.839462,4.74660317 176.006251,5.36279365 C176.172726,5.97930159 176.25612,6.56787302 176.25612,7.12787302 C176.25612,8.0567619 176.041812,8.92120635 175.613195,9.72152381 C175.184893,10.5224762 174.589488,11.1945397 173.827922,11.7389841 L178.160349,19.423746 L172.613823,19.423746 Z" id="Fill-18"></path>
                    <path d="M187.137601,5.3267619 L184.304703,5.3267619 L184.304703,14.8848571 L187.137601,14.8848571 C187.804128,14.8848571 188.426912,14.7610476 189.006269,14.5127937 C189.58531,14.2645397 190.089454,13.9242222 190.518071,13.4918413 C190.946687,13.0594603 191.283412,12.5515238 191.52982,11.9670794 C191.775598,11.3826349 191.898644,10.7626349 191.898644,10.1058095 C191.898644,9.44961905 191.775598,8.82930159 191.52982,8.24453968 C191.283412,7.6604127 190.946687,7.15215873 190.518071,6.71977778 C190.089454,6.28739683 189.58531,5.94739683 189.006269,5.69914286 C188.426912,5.45088889 187.804128,5.3267619 187.137601,5.3267619 M187.708775,19.4235873 L179.447992,19.4235873 L179.447992,0.788031746 L187.708775,0.788031746 C188.99431,0.788031746 190.200227,1.03215873 191.32747,1.5204127 C192.454083,2.00898413 193.438139,2.67311111 194.279323,3.51374603 C195.120507,4.35438095 195.782943,5.34295238 196.267261,6.47946032 C196.750949,7.61628571 196.993265,8.8251746 196.993265,10.1058095 C196.993265,11.3867619 196.750949,12.5953333 196.267261,13.7321587 C195.782943,14.8689841 195.120507,15.8572381 194.279323,16.697873 C193.438139,17.5385079 192.454083,18.2029524 191.32747,18.6912063 C190.200227,19.1797778 188.99431,19.4235873 187.708775,19.4235873" id="Fill-20"></path>
                </g>
                <g id="Page-1">
                    <polygon id="Fill-1" fill="#FFFFFF" points="17.8432907 7.11111111 17.8432907 12.6666667 25.1127796 9.88876631"></polygon>
                    <polygon id="Fill-2" fill="#FFFFFF" points="11.014377 15.3333333 13.878115 14.2477254 13.878115 5.53017757 11.014377 4.44444444"></polygon>
                    <polygon id="Fill-3" fill="#FFFFFF" points="0 0.222222222 3.54993623 10.1109216 0 20 7.26948882 17.1371028 7.26948882 3.08511944"></polygon>
                    <g id="Group-11" transform="translate(27.315655, 0.000000)">
                        <path d="M17.1095124,9.91626285 C17.1095124,8.2605983 15.7657255,6.91835485 14.1098756,6.91835485 C12.4540257,6.91835485 11.1106169,8.2605983 11.1106169,9.91626285 C11.1106169,11.5719274 12.4540257,12.9145488 14.1098756,12.9145488 C15.7657255,12.9145488 17.1095124,11.5719274 17.1095124,9.91626285" id="Fill-4" fill="#00ADEE"></path>
                        <g id="Group-8" transform="translate(14.746114, 0.000000)">
                            <mask id="mask-2" fill="white">
                                <use xlink:href="#path-1"></use>
                            </mask>
                            <g id="Clip-7"></g>
                            <path d="M10.3580231,0.0549872611 L0.0857795297,4.10048762 C2.9845882,4.45673956 5.23154303,6.92228521 5.23154303,9.91628804 C5.23154303,12.9107948 2.9845882,15.3759625 0.0857795297,15.7323404 L10.3580231,19.7777148 L6.81807362,9.91628804 L10.3580231,0.0549872611 Z" id="Fill-6" fill="#00ADEE" mask="url(#mask-2)"></path>
                        </g>
                        <path d="M8.24200625,9.91626285 C8.24200625,8.48583822 8.75572556,7.17584388 9.60772324,6.15798117 L0.0635847381,9.91626285 L9.6072191,13.6749224 C8.75572556,12.6569338 8.24200625,11.3469394 8.24200625,9.91626285" id="Fill-9" fill="#00ADEE"></path>
                    </g>
                </g>
            </g>
        </g>
    </g>
</svg>