<?xml version="1.0" encoding="UTF-8"?>
<svg width="96px" height="96px" viewBox="0 0 96 96" version="1.1" xmlns="http://www.w3.org/2000/svg" xmlns:xlink="http://www.w3.org/1999/xlink">
    <!-- Generator: Sketch 48.2 (47327) - http://www.bohemiancoding.com/sketch -->
    <title>Venues - 1</title>
    <desc>Created with Sketch.</desc>
    <defs></defs>
    <g id="Venue---Work-with-us-–-Desktop" stroke="none" stroke-width="1" fill="none" fill-rule="evenodd" transform="translate(-181.000000, -1345.000000)">
        <g id="Find-Firms-Copy-3" transform="translate(0.000000, 906.000000)" fill="#F14B3C">
            <g id="#1" transform="translate(149.000000, 377.000000)">
                <g id="Icons-/-Sections-/-What-you-want" transform="translate(20.000000, 50.000000)">
                    <g id="icons8-find_user" transform="translate(12.000000, 12.000000)">
                        <path d="M39,0 C35.6953125,0 30.978516,1.03125 28.037109,3.0117195 C22.453125,3.2109375 18.6269535,7.1367195 18.005859,13.347657 C17.625,17.191407 17.9765625,19.9394535 18.2050785,21.755859 C18.287109,22.3886715 18.375,23.097657 18.3457035,23.3144535 C18.2988285,23.5898445 18.2519535,23.8769535 18.2109375,24.1582035 C17.9648445,24.1699215 17.7421875,24.2050785 17.5546875,24.2578125 C16.207032,24.615234 15.2578125,25.822266 14.8828125,27.650391 C14.583984,29.115234 14.677734,30.896484 15.1523445,32.666016 C15.9550785,35.660157 17.6367195,37.910157 19.4765625,38.6015625 C20.425782,41.5078125 21.8203125,44.396484 23.5546875,46.9921875 L9.7265625,55.0019535 C3.7265625,58.4765625 0,64.9453125 0,71.8828125 L0,82.5 C0,84.978516 2.021484,87 4.5,87 L45.8613285,87 C44.5019535,89.2148445 44.765625,92.144532 46.681641,94.0605465 C47.800782,95.1796875 49.271484,95.7421875 50.7421875,95.7421875 C52.212891,95.7421875 53.6835945,95.1796875 54.802734,94.0605465 L61.681641,87.181641 C61.7988285,87.0644535 62.0800785,86.847657 62.1269535,86.8769535 C65.4667965,88.8457035 69.3457035,90 73.5,90 C85.9042965,90 96,79.9042965 96,67.5 C96,55.0957035 85.9042965,45 73.5,45 C68.203125,45 63.3398445,46.8515625 59.490234,49.921875 L54.4453125,46.9921875 C56.1796875,44.396484 57.5742195,41.5078125 58.5234375,38.6015625 C60.363282,37.910157 62.0449215,35.660157 62.847657,32.666016 C63.322266,30.896484 63.416016,29.115234 63.1171875,27.650391 C62.7421875,25.822266 61.7929695,24.615234 60.4453125,24.2578125 C60.2578125,24.2050785 60.041016,24.1699215 59.7890625,24.1582035 C59.583984,22.552734 59.1738285,21.052734 58.412109,19.0019535 C58.394532,18.943359 58.3769535,18.890625 58.359375,18.84375 C58.8867195,18.884766 59.7363285,19.1015625 60.427734,19.3828125 C60.9492195,19.599609 61.541016,19.505859 61.96875,19.1484375 C62.396484,18.791016 62.5898445,18.228516 62.4667965,17.677734 C60.046875,6.609375 51.837891,0 40.5,0 L39,0 Z M39,3 L40.5,3 C49.6054695,3 56.1796875,7.6523445 58.875,15.8730465 C57.837891,15.755859 56.765625,15.884766 56.0332035,16.59375 C55.458984,17.1386715 54.9199215,18.1875 55.599609,20.0390625 C56.525391,22.5585945 56.853516,24.041016 56.953125,26.150391 C56.9765625,26.6894535 57.287109,27.1699215 57.7675785,27.416016 C58.2421875,27.65625 58.816407,27.6328125 59.2734375,27.333984 C59.5136715,27.181641 59.6425785,27.1582035 59.671875,27.1582035 C59.753907,27.193359 60.0234375,27.503907 60.175782,28.2480465 C60.380859,29.255859 60.2988285,30.5800785 59.947266,31.8925785 C59.208984,34.6523445 57.791016,35.818359 57.3515625,35.818359 C56.6894535,35.818359 56.103516,36.2578125 55.916016,36.890625 C53.384766,45.3925785 46.7636715,54 39,54 C31.2363285,54 24.615234,45.3925785 22.083984,36.890625 C21.896484,36.2578125 21.316407,35.818359 20.6484375,35.818359 C20.208984,35.818359 18.791016,34.6523445 18.052734,31.8925785 C17.7011715,30.5800785 17.619141,29.255859 17.8242195,28.2480465 C17.9824215,27.4863285 18.2578125,27.175782 18.328125,27.1582035 C18.328125,27.1582035 18.457032,27.1582035 18.7265625,27.333984 C19.1835945,27.6269535 19.7519535,27.65625 20.2324215,27.416016 C20.712891,27.1699215 21.0234375,26.6894535 21.046875,26.150391 C21.082032,25.3710945 21.1699215,24.5917965 21.3046875,23.8359375 C21.416016,23.191407 21.322266,22.4707035 21.181641,21.375 C20.9648445,19.693359 20.6425785,17.150391 20.994141,13.6523445 C21.474609,8.859375 24.28125,6 28.5292965,6 C28.8515625,6 29.1679695,5.894532 29.425782,5.7011715 C31.4824215,4.160157 35.5957035,3 39,3 Z M30.2578125,12.1875 C29.3730465,12.269532 28.535157,12.744141 28.025391,13.5234375 L25.6171875,17.1738285 C25.160157,17.865234 25.353516,18.796875 26.0449215,19.253907 C26.296875,19.4179695 26.583984,19.5 26.865234,19.5 C27.3574215,19.5 27.832032,19.265625 28.125,18.8261715 L30.5273445,15.175782 L32.8710945,16.318359 C37.1425785,18.4042965 41.912109,19.5 46.6640625,19.5 L50.5019535,19.5 C51.328125,19.5 52.0019535,18.832032 52.0019535,18 C52.0019535,17.1679695 51.328125,16.5 50.5019535,16.5 L46.6640625,16.5 C42.363282,16.5 38.050782,15.503907 34.1894535,13.6171875 L31.8398445,12.4804695 C31.3300785,12.228516 30.785157,12.140625 30.2578125,12.1875 Z M73.5,48 C84.2519535,48 93,56.7480465 93,67.5 C93,78.2519535 84.2519535,87 73.5,87 C62.7480465,87 54,78.2519535 54,67.5 C54,56.7480465 62.7480465,48 73.5,48 Z M25.359375,49.412109 C29.009766,53.865234 33.755859,57 39,57 C44.244141,57 48.984375,53.865234 52.634766,49.412109 L57.1875,52.0488285 C53.3613285,56.0859375 51,61.5175785 51,67.5 C51,71.5488285 52.0957035,75.3457035 53.9765625,78.6328125 C53.994141,78.65625 53.7011715,78.9199215 53.5605465,79.0605465 L48.6210945,84 L4.5,84 C3.6738285,84 3,83.3261715 3,82.5 L3,71.8828125 C3,66.0117195 6.1523445,60.5390625 11.2324215,57.597657 L25.359375,49.412109 Z M73.3710945,51 C64.3417965,51 57,58.3417965 57,67.3710945 C57,76.400391 64.3417965,83.7421875 73.3710945,83.7421875 C82.400391,83.7421875 89.7421875,76.400391 89.7421875,67.3710945 C89.7421875,58.3417965 82.400391,51 73.3710945,51 Z M73.3710945,54 C80.7421875,54 86.7421875,60 86.7421875,67.3710945 C86.7421875,74.7421875 80.7421875,80.7421875 73.3710945,80.7421875 C66,80.7421875 60,74.7421875 60,67.3710945 C60,60 66,54 73.3710945,54 Z M73.3710945,56.7421875 C72.5449215,56.7421875 71.8710945,57.410157 71.8710945,58.2421875 C71.8710945,59.068359 72.5449215,59.7421875 73.3710945,59.7421875 C76.4355465,59.7421875 79.1894535,61.5585945 80.390625,64.3828125 C80.6367195,64.9511715 81.193359,65.291016 81.7734375,65.291016 C81.972657,65.291016 82.171875,65.255859 82.359375,65.1738285 C83.1269535,64.8457035 83.478516,63.9667965 83.15625,63.2050785 C81.4804695,59.2792965 77.6367195,56.7421875 73.3710945,56.7421875 Z M27.09375,57 C26.5078125,56.9648445 25.9335945,57.275391 25.6582035,57.8261715 C25.2890625,58.5703125 25.587891,59.472657 26.3261715,59.8417965 L38.3261715,65.8417965 C38.5429695,65.947266 38.771484,66 39,66 C39.228516,66 39.462891,65.947266 39.6738285,65.8417965 L48.896484,61.2304695 C49.634766,60.8613285 49.9394535,59.958984 49.5703125,59.2207035 C49.1953125,58.4765625 48.2929695,58.177734 47.5546875,58.546875 L39,62.8242195 L27.6738285,57.1582035 C27.4863285,57.0644535 27.287109,57.0175785 27.09375,57 Z M9,75 C8.1738285,75 7.5,75.6679695 7.5,76.5 L7.5,79.5 C7.5,80.332032 8.1738285,81 9,81 C9.8261715,81 10.5,80.332032 10.5,79.5 L10.5,76.5 C10.5,75.6679695 9.8261715,75 9,75 Z M16.5,75 C15.6738285,75 15,75.6679695 15,76.5 L15,79.5 C15,80.332032 15.6738285,81 16.5,81 C17.3261715,81 18,80.332032 18,79.5 L18,76.5 C18,75.6679695 17.3261715,75 16.5,75 Z M24,75 C23.1738285,75 22.5,75.6679695 22.5,76.5 L22.5,79.5 C22.5,80.332032 23.1738285,81 24,81 C24.8261715,81 25.5,80.332032 25.5,79.5 L25.5,76.5 C25.5,75.6679695 24.8261715,75 24,75 Z M31.5,75 C30.6738285,75 30,75.6679695 30,76.5 L30,79.5 C30,80.332032 30.6738285,81 31.5,81 C32.3261715,81 33,80.332032 33,79.5 L33,76.5 C33,75.6679695 32.3261715,75 31.5,75 Z M39,75 C38.1738285,75 37.5,75.6679695 37.5,76.5 L37.5,79.5 C37.5,80.332032 38.1738285,81 39,81 C39.8261715,81 40.5,80.332032 40.5,79.5 L40.5,76.5 C40.5,75.6679695 39.8261715,75 39,75 Z M46.5,75 C45.6738285,75 45,75.6679695 45,76.5 L45,79.5 C45,80.332032 45.6738285,81 46.5,81 C47.3261715,81 48,80.332032 48,79.5 L48,76.5 C48,75.6679695 47.3261715,75 46.5,75 Z M55.681641,81.181641 C56.800782,82.634766 58.083984,83.953125 59.525391,85.1015625 L52.681641,91.9394535 C51.609375,93.0117195 49.875,93.0117195 48.802734,91.9394535 C47.7304695,90.8671875 47.7304695,89.1328125 48.802734,88.0605465 L50.296875,86.5605465 L50.302734,86.5546875 L55.681641,81.181641 Z" id="Shape" fill-rule="nonzero"></path>
                    </g>
                </g>
            </g>
        </g>
    </g>
</svg>