<?xml version="1.0" encoding="UTF-8"?>
<svg width="90px" height="94px" viewBox="0 0 90 94" version="1.1" xmlns="http://www.w3.org/2000/svg" xmlns:xlink="http://www.w3.org/1999/xlink">
    <!-- Generator: Sketch 48.2 (47327) - http://www.bohemiancoding.com/sketch -->
    <title>Venues - 4</title>
    <desc>Created with Sketch.</desc>
    <defs></defs>
    <g id="Venue---Work-with-us-–-Desktop" stroke="none" stroke-width="1" fill="none" fill-rule="evenodd" transform="translate(-1065.000000, -1346.000000)">
        <g id="Find-Firms-Copy-3" transform="translate(0.000000, 906.000000)" fill="#F14B3C" fill-rule="nonzero">
            <g id="#4" transform="translate(1028.000000, 377.000000)">
                <g id="Icons-/-Sections-/-Billing" transform="translate(22.000000, 50.000000)">
                    <path d="M71.25,13.5 C66.5449215,13.5 62.4492195,16.066407 60.240234,19.863282 C59.197266,19.634766 58.113282,19.5 57,19.5 C48.7265625,19.5 42,26.2265625 42,34.5 C42,40.7167965 45.8085945,46.0488285 51.2109375,48.322266 C51.087891,49.2011715 51,50.0917965 51,51 C51,61.7519535 59.7480465,70.5 70.5,70.5 C81.2519535,70.5 90,61.7519535 90,51 C90,44.0742195 86.3613285,37.9921875 80.90625,34.535157 C82.822266,32.302734 84,29.4199215 84,26.25 C84,19.21875 78.28125,13.5 71.25,13.5 Z M71.25,16.5 C76.628907,16.5 81,20.8710945 81,26.25 C81,28.916016 79.910157,31.318359 78.1699215,33.0761715 C76.166016,32.2148445 73.9863285,31.6992195 71.7011715,31.5585945 C70.7460945,26.771484 67.5,22.8105465 63.1640625,20.8417965 C64.910157,18.228516 67.875,16.5 71.25,16.5 Z M57,22.5 C62.613282,22.5 67.318359,26.378907 68.625,31.59375 C60.6796875,32.3554695 54.1171875,37.8984375 51.849609,45.3046875 C47.8125,43.3710945 45,39.269532 45,34.5 C45,27.884766 50.384766,22.5 57,22.5 Z M57,25.5 C52.037109,25.5 48,29.537109 48,34.5 C48,35.3261715 48.6738285,36 49.5,36 C50.3261715,36 51,35.3261715 51,34.5 C51,31.1894535 53.6894535,28.5 57,28.5 C57.8261715,28.5 58.5,27.8261715 58.5,27 C58.5,26.1738285 57.8261715,25.5 57,25.5 Z M70.5,34.5 C79.599609,34.5 87,41.900391 87,51 C87,60.099609 79.599609,67.5 70.5,67.5 C61.400391,67.5 54,60.099609 54,51 C54,41.900391 61.400391,34.5 70.5,34.5 Z M70.5,37.5 C69.6738285,37.5 69,38.1738285 69,39 L69,40.5 C65.6894535,40.5 63,43.1894535 63,46.5 C63,49.8105465 65.6894535,52.5 69,52.5 L72,52.5 C73.6523445,52.5 75,53.847657 75,55.5 C75,57.1523445 73.6523445,58.5 72,58.5 L72,55.5 C72,54.6738285 71.3261715,54 70.5,54 C69.6738285,54 69,54.6738285 69,55.5 L69,58.5 C67.347657,58.5 66,57.1523445 66,55.5 C66,54.6738285 65.3261715,54 64.5,54 C63.6738285,54 63,54.6738285 63,55.5 C63,58.8105465 65.6894535,61.5 69,61.5 L69,63 C69,63.8261715 69.6738285,64.5 70.5,64.5 C71.3261715,64.5 72,63.8261715 72,63 L72,61.5 C75.3105465,61.5 78,58.8105465 78,55.5 C78,52.1894535 75.3105465,49.5 72,49.5 L72,46.5 C72,45.6738285 71.3261715,45 70.5,45 C69.6738285,45 69,45.6738285 69,46.5 L69,49.5 C67.347657,49.5 66,48.1523445 66,46.5 C66,44.847657 67.347657,43.5 69,43.5 L72,43.5 C73.6523445,43.5 75,44.847657 75,46.5 C75,47.3261715 75.6738285,48 76.5,48 C77.3261715,48 78,47.3261715 78,46.5 C78,43.1894535 75.3105465,40.5 72,40.5 L72,39 C72,38.1738285 71.3261715,37.5 70.5,37.5 Z M39.4453125,66.4863285 C38.537109,66.462891 37.628907,66.503907 36.7207035,66.609375 L18.972657,68.6953125 C16.7109375,68.9648445 15,70.8867195 15,73.171875 L15,92.15625 C15,93.556641 15.6328125,94.8457035 16.734375,95.707032 C17.8300785,96.5625 19.2363285,96.8613285 20.5898445,96.521484 L30.4335945,94.066407 C32.941407,93.4453125 35.583984,93.755859 37.875,94.962891 L56.753907,104.90625 C58.722657,105.943359 60.878907,106.458984 63.041016,106.458984 C65.1738285,106.458984 67.306641,105.960938 69.2578125,104.947266 L101.208984,88.3769535 C103.546875,87.1640625 105,84.7792965 105,82.130859 C105,79.9453125 104.003907,77.9238285 102.275391,76.582032 C100.546875,75.240234 98.332032,74.7890625 96.2167965,75.3398445 L76.1015625,80.5546875 C75.708984,79.3828125 75.0234375,78.3105465 74.109375,77.4609375 C72.5859375,76.0429695 70.535157,75.322266 68.4609375,75.46875 L65.1738285,75.703125 C63.884766,75.796875 62.6015625,75.556641 61.4355465,75.005859 L47.3203125,68.34375 C44.8417965,67.177734 42.1582035,66.5449215 39.4453125,66.4863285 Z M39.375,69.4863285 C41.671875,69.5390625 43.9453125,70.066407 46.037109,71.056641 L60.1582035,77.71875 C61.787109,78.4863285 63.5917965,78.8203125 65.390625,78.697266 L68.677734,78.462891 C69.9375,78.375 71.144532,78.796875 72.0703125,79.6582035 C72.990234,80.5136715 73.5,81.6855465 73.5,82.9453125 L73.5,83.5546875 C73.5,84.146484 73.1542965,84.6855465 72.615234,84.925782 L68.1855465,86.912109 C64.863282,88.40625 61.019532,88.488282 57.6386715,87.134766 L50.0742195,84.1054695 C49.300782,83.7949215 48.427734,84.1699215 48.1230465,84.943359 C47.8125,85.7109375 48.1875,86.583984 48.9609375,86.8886715 L56.525391,89.9238285 C60.662109,91.5761715 65.3613285,91.4765625 69.421875,89.6484375 L73.8457035,87.662109 C75.457032,86.9355465 76.5,85.3242195 76.5,83.5546875 L96.9667965,78.240234 C98.1855465,77.9296875 99.4453125,78.1875 100.435547,78.9550785 C101.431641,79.722657 102,80.8828125 102,82.1484375 C102,83.6542965 101.167969,85.019532 99.832032,85.7109375 L67.875,102.28125 C64.828125,103.863282 61.1894535,103.851562 58.1484375,102.251954 L39.269532,92.3085945 C37.3125,91.2773445 35.15625,90.75 32.9824215,90.75 C31.8867195,90.75 30.791016,90.884766 29.712891,91.1542965 L19.863282,93.615234 C19.412109,93.7265625 18.943359,93.6269535 18.5800785,93.3457035 C18.2109375,93.0585945 18,92.625 18,92.15625 L18,73.171875 C18,72.410157 18.568359,71.765625 19.3242195,71.677734 L37.072266,69.5917965 C37.8398445,69.503907 38.6074215,69.46875 39.375,69.4863285 Z M22.5,73.5 C21.6738285,73.5 21,74.1738285 21,75 C21,75.8261715 21.6738285,76.5 22.5,76.5 L25.5,76.5 C26.3261715,76.5 27,75.8261715 27,75 C27,74.1738285 26.3261715,73.5 25.5,73.5 L22.5,73.5 Z M22.5,81 C21.6738285,81 21,81.6738285 21,82.5 C21,83.3261715 21.6738285,84 22.5,84 L25.5,84 C26.3261715,84 27,83.3261715 27,82.5 C27,81.6738285 26.3261715,81 25.5,81 L22.5,81 Z M22.5,88.5 C21.6738285,88.5 21,89.1738285 21,90 C21,90.8261715 21.6738285,91.5 22.5,91.5 L25.5,91.5 C26.3261715,91.5 27,90.8261715 27,90 C27,89.1738285 26.3261715,88.5 25.5,88.5 L22.5,88.5 Z" id="Shape"></path>
                </g>
            </g>
        </g>
    </g>
</svg>