<?xml version="1.0" encoding="UTF-8"?>
<svg width="78px" height="88px" viewBox="0 0 78 88" version="1.1" xmlns="http://www.w3.org/2000/svg" xmlns:xlink="http://www.w3.org/1999/xlink">
    <!-- Generator: Sketch 48.2 (47327) - http://www.bohemiancoding.com/sketch -->
    <title>Venues - 3</title>
    <desc>Created with Sketch.</desc>
    <defs></defs>
    <g id="Venue---Work-with-us-–-Desktop" stroke="none" stroke-width="1" fill="none" fill-rule="evenodd" transform="translate(-776.000000, -1349.000000)">
        <g id="Find-Firms-Copy-3" transform="translate(0.000000, 906.000000)" fill="#F14B3C">
            <g id="#3" transform="translate(735.000000, 377.000000)">
                <g id="Icons-/-Sections-/-Contracting" transform="translate(20.000000, 50.000000)">
                    <g id="icons8-documents" transform="translate(21.000000, 16.500000)">
                        <path d="M20.484375,0 C18.4804695,0 16.59375,0.7792965 15.181641,2.197266 L2.197266,15.181641 C0.7792965,16.599609 0,18.4804695 0,20.484375 L0,73.5 C0,75.978516 2.021484,78 4.5,78 L12,78 L12,82.5 C12,84.978516 14.021484,87 16.5,87 L73.5,87 C75.978516,87 78,84.978516 78,82.5 L78,13.5 C78,11.021484 75.978516,9 73.5,9 L66,9 L66,4.5 C66,2.021484 63.978516,0 61.5,0 L20.484375,0 Z M21,3 L61.5,3 C62.3261715,3 63,3.6738285 63,4.5 L63,63 C62.1679695,63 61.5,63.6679695 61.5,64.5 L61.5,67.5 C61.5,68.332032 62.1679695,69 63,69 L63,73.5 C63,74.3261715 62.3261715,75 61.5,75 L4.5,75 C3.6738285,75 3,74.3261715 3,73.5 L3,69 C3.832032,69 4.5,68.332032 4.5,67.5 L4.5,64.5 C4.5,63.6679695 3.832032,63 3,63 L3,21 L16.5,21 C18.978516,21 21,18.978516 21,16.5 L21,3 Z M18,3.75 L18,16.5 C18,17.3261715 17.3261715,18 16.5,18 L3.75,18 C3.9199215,17.7480465 4.1074215,17.5136715 4.318359,17.302734 L17.302734,4.318359 C17.519532,4.1015625 17.753907,3.9140625 18,3.75 Z M66,12 L73.5,12 C74.3261715,12 75,12.6738285 75,13.5 L75,82.5 C75,83.3261715 74.3261715,84 73.5,84 L16.5,84 C15.6738285,84 15,83.3261715 15,82.5 L15,78 L61.5,78 C63.978516,78 66,75.978516 66,73.5 L66,12 Z M16.5,27 C15.6679695,27 15,27.6679695 15,28.5 C15,29.332032 15.6679695,30 16.5,30 L37.5,30 C38.332032,30 39,29.332032 39,28.5 C39,27.6679695 38.332032,27 37.5,27 L16.5,27 Z M43.5,27 C42.6679695,27 42,27.6679695 42,28.5 C42,29.332032 42.6679695,30 43.5,30 L49.5,30 C50.332032,30 51,29.332032 51,28.5 C51,27.6679695 50.332032,27 49.5,27 L43.5,27 Z M16.5,33 C15.6679695,33 15,33.6679695 15,34.5 C15,35.332032 15.6679695,36 16.5,36 L43.5,36 C44.332032,36 45,35.332032 45,34.5 C45,33.6679695 44.332032,33 43.5,33 L16.5,33 Z M16.5,42 C15.6679695,42 15,42.6679695 15,43.5 C15,44.332032 15.6679695,45 16.5,45 L46.5,45 C47.332032,45 48,44.332032 48,43.5 C48,42.6679695 47.332032,42 46.5,42 L16.5,42 Z M16.5,48 C15.6679695,48 15,48.6679695 15,49.5 C15,50.332032 15.6679695,51 16.5,51 L31.5,51 C32.332032,51 33,50.332032 33,49.5 C33,48.6679695 32.332032,48 31.5,48 L16.5,48 Z M10.5,63 C9.6679695,63 9,63.6679695 9,64.5 L9,67.5 C9,68.332032 9.6679695,69 10.5,69 C11.332032,69 12,68.332032 12,67.5 L12,64.5 C12,63.6679695 11.332032,63 10.5,63 Z M18,63 C17.1679695,63 16.5,63.6679695 16.5,64.5 L16.5,67.5 C16.5,68.332032 17.1679695,69 18,69 C18.832032,69 19.5,68.332032 19.5,67.5 L19.5,64.5 C19.5,63.6679695 18.832032,63 18,63 Z M25.5,63 C24.6679695,63 24,63.6679695 24,64.5 L24,67.5 C24,68.332032 24.6679695,69 25.5,69 C26.332032,69 27,68.332032 27,67.5 L27,64.5 C27,63.6679695 26.332032,63 25.5,63 Z M33,63 C32.1679695,63 31.5,63.6679695 31.5,64.5 L31.5,67.5 C31.5,68.332032 32.1679695,69 33,69 C33.832032,69 34.5,68.332032 34.5,67.5 L34.5,64.5 C34.5,63.6679695 33.832032,63 33,63 Z M40.5,63 C39.6679695,63 39,63.6679695 39,64.5 L39,67.5 C39,68.332032 39.6679695,69 40.5,69 C41.332032,69 42,68.332032 42,67.5 L42,64.5 C42,63.6679695 41.332032,63 40.5,63 Z M48,63 C47.1679695,63 46.5,63.6679695 46.5,64.5 L46.5,67.5 C46.5,68.332032 47.1679695,69 48,69 C48.832032,69 49.5,68.332032 49.5,67.5 L49.5,64.5 C49.5,63.6679695 48.832032,63 48,63 Z M55.5,63 C54.6679695,63 54,63.6679695 54,64.5 L54,67.5 C54,68.332032 54.6679695,69 55.5,69 C56.332032,69 57,68.332032 57,67.5 L57,64.5 C57,63.6679695 56.332032,63 55.5,63 Z" id="Shape" fill-rule="nonzero"></path>
                    </g>
                </g>
            </g>
        </g>
    </g>
</svg>