<?xml version="1.0" encoding="UTF-8"?>
<svg width="84px" height="72px" viewBox="0 0 84 72" version="1.1" xmlns="http://www.w3.org/2000/svg" xmlns:xlink="http://www.w3.org/1999/xlink">
    <!-- Generator: Sketch 48.2 (47327) - http://www.bohemiancoding.com/sketch -->
    <title>Venues - 2 </title>
    <desc>Created with Sketch.</desc>
    <defs></defs>
    <g id="Venue---Work-with-us-–-Desktop" stroke="none" stroke-width="1" fill="none" fill-rule="evenodd" transform="translate(-480.000000, -1357.000000)">
        <g id="Find-Firms-Copy-3" transform="translate(0.000000, 906.000000)">
            <g id="#2" transform="translate(442.000000, 377.000000)">
                <g id="Icons-/-Sections-/-List" transform="translate(20.000000, 50.000000)">
                    <g id="icons8-handshake" transform="translate(15.000000, 19.500000)"></g>
                    <g id="icons8-todo_list" transform="translate(18.000000, 24.000000)" fill="#F14B3C">
                        <path d="M4.5,0 C2.021484,0 0,2.021484 0,4.5 L0,67.5 C0,69.978516 2.021484,72 4.5,72 L79.5,72 C81.978516,72 84,69.978516 84,67.5 L84,4.5 C84,2.021484 81.978516,0 79.5,0 L4.5,0 Z M4.5,3 L79.5,3 C80.3261715,3 81,3.6738285 81,4.5 L81,67.5 C81,68.3261715 80.3261715,69 79.5,69 L4.5,69 C3.6738285,69 3,68.3261715 3,67.5 L3,4.5 C3,3.6738285 3.6738285,3 4.5,3 Z M22.5,18 C22.119141,18 21.7324215,18.146484 21.4394535,18.4394535 L16.5,23.378907 L14.5605465,21.4394535 C13.974609,20.853516 13.025391,20.853516 12.4394535,21.4394535 C11.853516,22.025391 11.853516,22.974609 12.4394535,23.5605465 L15.4394535,26.5605465 C15.7324215,26.853516 16.113282,27 16.5,27 C16.8867195,27 17.2675785,26.853516 17.5605465,26.5605465 L23.5605465,20.5605465 C24.146484,19.974609 24.146484,19.025391 23.5605465,18.4394535 C23.2675785,18.146484 22.880859,18 22.5,18 Z M31.5,21 C30.6679695,21 30,21.6738285 30,22.5 C30,23.3261715 30.6679695,24 31.5,24 L37.5,24 C38.332032,24 39,23.3261715 39,22.5 C39,21.6738285 38.332032,21 37.5,21 L31.5,21 Z M43.5,21 C42.6679695,21 42,21.6738285 42,22.5 C42,23.3261715 42.6679695,24 43.5,24 L70.5,24 C71.332032,24 72,23.3261715 72,22.5 C72,21.6738285 71.332032,21 70.5,21 L43.5,21 Z M22.5,30 C22.119141,30 21.7324215,30.146484 21.4394535,30.4394535 L16.5,35.378907 L14.5605465,33.4394535 C13.974609,32.853516 13.025391,32.853516 12.4394535,33.4394535 C11.853516,34.025391 11.853516,34.974609 12.4394535,35.5605465 L15.4394535,38.5605465 C15.7324215,38.853516 16.113282,39 16.5,39 C16.8867195,39 17.2675785,38.853516 17.5605465,38.5605465 L23.5605465,32.5605465 C24.146484,31.974609 24.146484,31.025391 23.5605465,30.4394535 C23.2675785,30.146484 22.880859,30 22.5,30 Z M31.5,33 C30.6679695,33 30,33.6738285 30,34.5 C30,35.3261715 30.6679695,36 31.5,36 L70.5,36 C71.332032,36 72,35.3261715 72,34.5 C72,33.6738285 71.332032,33 70.5,33 L31.5,33 Z M22.5,42 C22.119141,42 21.7324215,42.146484 21.4394535,42.4394535 L16.5,47.378907 L14.5605465,45.4394535 C13.974609,44.853516 13.025391,44.853516 12.4394535,45.4394535 C11.853516,46.025391 11.853516,46.974609 12.4394535,47.5605465 L15.4394535,50.5605465 C15.7324215,50.853516 16.113282,51 16.5,51 C16.8867195,51 17.2675785,50.853516 17.5605465,50.5605465 L23.5605465,44.5605465 C24.146484,43.974609 24.146484,43.025391 23.5605465,42.4394535 C23.2675785,42.146484 22.880859,42 22.5,42 Z M31.5,45 C30.6679695,45 30,45.6738285 30,46.5 C30,47.3261715 30.6679695,48 31.5,48 L52.5,48 C53.332032,48 54,47.3261715 54,46.5 C54,45.6738285 53.332032,45 52.5,45 L31.5,45 Z M58.5,45 C57.6679695,45 57,45.6738285 57,46.5 C57,47.3261715 57.6679695,48 58.5,48 L70.5,48 C71.332032,48 72,47.3261715 72,46.5 C72,45.6738285 71.332032,45 70.5,45 L58.5,45 Z M9,60 C8.1679695,60 7.5,60.6738285 7.5,61.5 L7.5,64.5 C7.5,65.3261715 8.1679695,66 9,66 C9.832032,66 10.5,65.3261715 10.5,64.5 L10.5,61.5 C10.5,60.6738285 9.832032,60 9,60 Z M16.5,60 C15.6679695,60 15,60.6738285 15,61.5 L15,64.5 C15,65.3261715 15.6679695,66 16.5,66 C17.332032,66 18,65.3261715 18,64.5 L18,61.5 C18,60.6738285 17.332032,60 16.5,60 Z M24,60 C23.1679695,60 22.5,60.6738285 22.5,61.5 L22.5,64.5 C22.5,65.3261715 23.1679695,66 24,66 C24.832032,66 25.5,65.3261715 25.5,64.5 L25.5,61.5 C25.5,60.6738285 24.832032,60 24,60 Z M31.5,60 C30.6679695,60 30,60.6738285 30,61.5 L30,64.5 C30,65.3261715 30.6679695,66 31.5,66 C32.332032,66 33,65.3261715 33,64.5 L33,61.5 C33,60.6738285 32.332032,60 31.5,60 Z M39,60 C38.1679695,60 37.5,60.6738285 37.5,61.5 L37.5,64.5 C37.5,65.3261715 38.1679695,66 39,66 C39.832032,66 40.5,65.3261715 40.5,64.5 L40.5,61.5 C40.5,60.6738285 39.832032,60 39,60 Z M46.5,60 C45.6679695,60 45,60.6738285 45,61.5 L45,64.5 C45,65.3261715 45.6679695,66 46.5,66 C47.332032,66 48,65.3261715 48,64.5 L48,61.5 C48,60.6738285 47.332032,60 46.5,60 Z M54,60 C53.1679695,60 52.5,60.6738285 52.5,61.5 L52.5,64.5 C52.5,65.3261715 53.1679695,66 54,66 C54.832032,66 55.5,65.3261715 55.5,64.5 L55.5,61.5 C55.5,60.6738285 54.832032,60 54,60 Z M61.5,60 C60.6679695,60 60,60.6738285 60,61.5 L60,64.5 C60,65.3261715 60.6679695,66 61.5,66 C62.332032,66 63,65.3261715 63,64.5 L63,61.5 C63,60.6738285 62.332032,60 61.5,60 Z M69,60 C68.1679695,60 67.5,60.6738285 67.5,61.5 L67.5,64.5 C67.5,65.3261715 68.1679695,66 69,66 C69.832032,66 70.5,65.3261715 70.5,64.5 L70.5,61.5 C70.5,60.6738285 69.832032,60 69,60 Z M76.5,60 C75.6679695,60 75,60.6738285 75,61.5 L75,64.5 C75,65.3261715 75.6679695,66 76.5,66 C77.332032,66 78,65.3261715 78,64.5 L78,61.5 C78,60.6738285 77.332032,60 76.5,60 Z" id="Shape" fill-rule="nonzero"></path>
                    </g>
                </g>
            </g>
        </g>
    </g>
</svg>